<svg xmlns="http://www.w3.org/2000/svg" width="938" height="659.454" viewBox="0 0 938 659.454">
  <g id="undraw_through_the_park_lxnl_1_" data-name="undraw_through_the_park_lxnl (1)" transform="translate(0)">
    <g id="Group_1" data-name="Group 1" transform="translate(0 0)">
      <circle id="Ellipse_1" data-name="Ellipse 1" cx="170.847" cy="170.847" r="170.847" fill="#ff2b2b"/>
      <circle id="Ellipse_2" data-name="Ellipse 2" cx="138.278" cy="138.278" r="138.278" transform="translate(661.443 105.051)" fill="#ff2b2b"/>
      <circle id="Ellipse_3" data-name="Ellipse 3" cx="21.768" cy="21.768" r="21.768" transform="translate(369.907 318.866)" fill="#ff2b2b"/>
      <circle id="Ellipse_4" data-name="Ellipse 4" cx="55.729" cy="55.729" r="55.729" transform="translate(537.096 214.746)" fill="#ff2b2b"/>
      <circle id="Ellipse_5" data-name="Ellipse 5" cx="7.404" cy="7.404" r="7.404" transform="translate(197.563 601.917)" fill="#ff2b2b"/>
      <circle id="Ellipse_6" data-name="Ellipse 6" cx="7.404" cy="7.404" r="7.404" transform="translate(249.81 567.434)" fill="#ff2b2b"/>
      <circle id="Ellipse_7" data-name="Ellipse 7" cx="5.88" cy="5.88" r="5.88" transform="translate(409.685 456.455)" fill="#ff2b2b"/>
      <circle id="Ellipse_8" data-name="Ellipse 8" cx="5.88" cy="5.88" r="5.88" transform="translate(639.57 418.837)" fill="#ff2b2b"/>
      <circle id="Ellipse_9" data-name="Ellipse 9" cx="5.88" cy="5.88" r="5.88" transform="translate(420.134 487.803)" fill="#ff2b2b"/>
      <circle id="Ellipse_10" data-name="Ellipse 10" cx="5.88" cy="5.88" r="5.88" transform="translate(395.056 510.791)" fill="#ff2b2b"/>
      <circle id="Ellipse_11" data-name="Ellipse 11" cx="5.88" cy="5.88" r="5.88" transform="translate(675.098 438.691)" fill="#ff2b2b"/>
      <circle id="Ellipse_12" data-name="Ellipse 12" cx="5.88" cy="5.88" r="5.88" transform="translate(336.539 464.814)" fill="#ff2b2b"/>
      <circle id="Ellipse_13" data-name="Ellipse 13" cx="5.88" cy="5.88" r="5.88" transform="translate(608.222 405.253)" fill="#ff2b2b"/>
      <circle id="Ellipse_14" data-name="Ellipse 14" cx="7.404" cy="7.404" r="7.404" transform="translate(106.654 605.051)" fill="#ff2b2b"/>
      <circle id="Ellipse_15" data-name="Ellipse 15" cx="7.404" cy="7.404" r="7.404" transform="translate(826.614 600.872)" fill="#ff2b2b"/>
      <circle id="Ellipse_16" data-name="Ellipse 16" cx="7.404" cy="7.404" r="7.404" transform="translate(766.007 565.344)" fill="#ff2b2b"/>
      <circle id="Ellipse_17" data-name="Ellipse 17" cx="7.404" cy="7.404" r="7.404" transform="translate(757.648 618.636)" fill="#ff2b2b"/>
    </g>
    <path id="Path_1" data-name="Path 1" d="M465.2,348.37H400.416v2.09h10.1v19.853h2.09V350.46h39.353v19.853h2.09V350.46H465.2Z" transform="translate(23.563 20.5)" fill="#3f3d56"/>
    <path id="Path_2" data-name="Path 2" d="M485.228,300.014H468.509v16.718h7.751v56.335h2.09V316.732h6.878Z" transform="translate(27.57 17.655)" fill="#3f3d56"/>
    <rect id="Rectangle_1" data-name="Rectangle 1" width="64.786" height="2.09" transform="translate(424.106 362.618)" fill="#3f3d56"/>
    <rect id="Rectangle_2" data-name="Rectangle 2" width="64.786" height="2.09" transform="translate(424.106 357.393)" fill="#3f3d56"/>
    <rect id="Rectangle_3" data-name="Rectangle 3" width="64.786" height="2.09" transform="translate(424.106 352.168)" fill="#3f3d56"/>
    <path id="Path_3" data-name="Path 3" d="M795.787,523.485H793.7c0-99.1-80.626-179.729-179.729-179.729S434.239,424.382,434.239,523.485h-2.09c0-100.255,81.564-181.819,181.818-181.819S795.787,423.23,795.787,523.485Z" transform="translate(-140.877 -126.648)" fill="#3f3d56"/>
    <path id="Path_4" data-name="Path 4" d="M454.262,192.179A170.86,170.86,0,0,1,169.581,373,170.861,170.861,0,1,0,454.262,192.179Z" transform="translate(-156.329 -135.445)" opacity="0.2"/>
    <path id="Path_5" data-name="Path 5" d="M162.291,161.352h.469l8.449,484.379H153.373Z" transform="translate(9.025 9.495)" fill="#3f3d56"/>
    <rect id="Rectangle_4" data-name="Rectangle 4" width="8.448" height="31.916" transform="translate(198.488 427.21) rotate(62.234)" fill="#3f3d56"/>
    <path id="Path_6" data-name="Path 6" d="M1022.29,281.178a138.289,138.289,0,0,1-230.413,146.35,138.29,138.29,0,1,0,230.413-146.35Z" transform="translate(-119.709 -130.208)" opacity="0.2"/>
    <path id="Path_7" data-name="Path 7" d="M756.036,229.806h.38l6.838,392.042H748.819Z" transform="translate(44.065 13.523)" fill="#3f3d56"/>
    <rect id="Rectangle_5" data-name="Rectangle 5" width="6.838" height="25.832" transform="translate(822.094 450.824) rotate(62.234)" fill="#3f3d56"/>
    <path id="Path_8" data-name="Path 8" d="M544.281,446.57a21.77,21.77,0,0,1-36.272,23.039,21.77,21.77,0,1,0,36.272-23.039Z" transform="translate(-136.413 -120.475)" opacity="0.2"/>
    <path id="Path_9" data-name="Path 9" d="M370.027,321.7h.059l1.077,61.716h-2.272Z" transform="translate(21.708 18.931)" fill="#3f3d56"/>
    <rect id="Rectangle_6" data-name="Rectangle 6" width="1.076" height="4.067" transform="translate(395.196 373.3) rotate(62.234)" fill="#3f3d56"/>
    <path id="Path_10" data-name="Path 10" d="M761.254,358.887a55.733,55.733,0,0,1-92.86,58.982,55.733,55.733,0,1,0,92.86-58.982Z" transform="translate(-126.975 -125.635)" opacity="0.2"/>
    <path id="Path_11" data-name="Path 11" d="M560.185,255.443h.152l2.756,158h-5.818Z" transform="translate(32.794 15.032)" fill="#3f3d56"/>
    <rect id="Rectangle_7" data-name="Rectangle 7" width="2.756" height="10.411" transform="translate(601.841 354.099) rotate(62.234)" fill="#3f3d56"/>
    <path id="Path_12" data-name="Path 12" d="M354.588,735.386s.722-15.12,15.514-13.362" transform="translate(-145.441 -104.274)" fill="#3f3d56"/>
    <rect id="Rectangle_8" data-name="Rectangle 8" width="2.09" height="14.629" transform="translate(203.762 621.787)" fill="#3f3d56"/>
    <path id="Path_13" data-name="Path 13" d="M403.931,702.82s.722-15.12,15.514-13.362" transform="translate(-142.538 -106.19)" fill="#3f3d56"/>
    <rect id="Rectangle_9" data-name="Rectangle 9" width="2.09" height="14.629" transform="translate(256.009 587.305)" fill="#3f3d56"/>
    <path id="Path_14" data-name="Path 14" d="M552.67,592.181s.573-12.009,12.322-10.613" transform="translate(-133.785 -112.537)" fill="#3f3d56"/>
    <rect id="Rectangle_10" data-name="Rectangle 10" width="1.66" height="11.619" transform="translate(414.608 472.237)" fill="#3f3d56"/>
    <path id="Path_15" data-name="Path 15" d="M769.779,556.654s.573-12.009,12.322-10.613" transform="translate(-121.009 -114.628)" fill="#3f3d56"/>
    <rect id="Rectangle_11" data-name="Rectangle 11" width="1.66" height="11.619" transform="translate(644.494 434.619)" fill="#3f3d56"/>
    <path id="Path_16" data-name="Path 16" d="M562.539,621.787s.573-12.009,12.322-10.613" transform="translate(-133.204 -110.795)" fill="#3f3d56"/>
    <rect id="Rectangle_12" data-name="Rectangle 12" width="1.66" height="11.619" transform="translate(425.058 503.585)" fill="#3f3d56"/>
    <path id="Path_17" data-name="Path 17" d="M538.854,643.5s.573-12.009,12.322-10.613" transform="translate(-134.598 -109.518)" fill="#3f3d56"/>
    <rect id="Rectangle_13" data-name="Rectangle 13" width="1.66" height="11.619" transform="translate(399.979 526.574)" fill="#3f3d56"/>
    <path id="Path_18" data-name="Path 18" d="M803.333,575.4s.573-12.009,12.322-10.613" transform="translate(-119.035 -113.525)" fill="#3f3d56"/>
    <rect id="Rectangle_14" data-name="Rectangle 14" width="1.66" height="11.619" transform="translate(680.022 454.473)" fill="#3f3d56"/>
    <path id="Path_19" data-name="Path 19" d="M483.59,600.076s.573-12.009,12.322-10.613" transform="translate(-137.85 -112.073)" fill="#3f3d56"/>
    <rect id="Rectangle_15" data-name="Rectangle 15" width="1.66" height="11.619" transform="translate(341.463 480.597)" fill="#3f3d56"/>
    <path id="Path_20" data-name="Path 20" d="M740.174,543.824s.573-12.009,12.322-10.613" transform="translate(-122.751 -115.383)" fill="#3f3d56"/>
    <rect id="Rectangle_16" data-name="Rectangle 16" width="1.66" height="11.619" transform="translate(613.146 421.035)" fill="#3f3d56"/>
    <path id="Path_21" data-name="Path 21" d="M268.731,738.347s.722-15.12,15.514-13.362" transform="translate(-150.494 -104.1)" fill="#3f3d56"/>
    <rect id="Rectangle_17" data-name="Rectangle 17" width="2.09" height="14.629" transform="translate(112.853 624.922)" fill="#3f3d56"/>
    <path id="Path_22" data-name="Path 22" d="M948.678,734.4s.722-15.12,15.514-13.363" transform="translate(-110.481 -104.332)" fill="#3f3d56"/>
    <rect id="Rectangle_18" data-name="Rectangle 18" width="2.09" height="14.629" transform="translate(832.812 620.742)" fill="#3f3d56"/>
    <path id="Path_23" data-name="Path 23" d="M891.44,700.846s.722-15.12,15.514-13.362" transform="translate(-113.85 -106.306)" fill="#3f3d56"/>
    <rect id="Rectangle_19" data-name="Rectangle 19" width="2.09" height="14.629" transform="translate(772.206 585.215)" fill="#3f3d56"/>
    <path id="Path_24" data-name="Path 24" d="M883.546,751.176s.722-15.12,15.514-13.362" transform="translate(-114.314 -103.345)" fill="#3f3d56"/>
    <rect id="Rectangle_20" data-name="Rectangle 20" width="2.09" height="14.629" transform="translate(763.847 638.506)" fill="#3f3d56"/>
    <path id="Path_25" data-name="Path 25" d="M280.091,776.254S609.246,689.524,606.111,600.7c-5.747-24.556-45.455-30.826-45.455-30.826s-94.044-12.539-42.842-42.842,191.223-22.989,191.223-22.989-144.2,22.989-80.46,35.528c51.2,3.135,117.033,16.719,117.033,16.719s133.752,28.213,152.56,97.179S901.3,775.731,901.3,775.731Z" transform="translate(-149.825 -117.138)" fill="#e6e6e6"/>
    <path id="Path_26" data-name="Path 26" d="M618.741,761.7l-1.233-1.723q2.612-1.867,5.145-3.714l1.247,1.712Q621.357,759.83,618.741,761.7Z" transform="translate(-129.97 -102.25)" fill="#fff"/>
    <path id="Path_27" data-name="Path 27" d="M638.253,764.966l-1.278-1.687c3.422-2.591,6.792-5.2,10.017-7.748l1.313,1.661C645.069,759.75,641.687,762.366,638.253,764.966Zm19.931-15.776-1.352-1.63c3.312-2.752,6.551-5.517,9.626-8.217l1.4,1.59C664.766,743.647,661.512,746.425,658.184,749.189Zm19.093-16.8-1.45-1.545c3.161-2.965,6.208-5.932,9.058-8.822l1.508,1.487C683.525,726.415,680.457,729.4,677.278,732.386Zm17.85-18.149-1.576-1.415c2.9-3.234,5.65-6.474,8.163-9.628l1.656,1.319C700.833,707.7,698.06,710.972,695.128,714.237Zm15.833-19.977-1.75-1.193c2.462-3.608,4.683-7.209,6.6-10.7l1.857,1.02C715.719,686.936,713.462,690.6,710.961,694.26ZM723.138,671.8l-1.971-.773a73.436,73.436,0,0,0,3.6-11.954l2.074.426a75.419,75.419,0,0,1-3.7,12.3Zm2.827-25.091a49.892,49.892,0,0,0-1.7-12.184l2.045-.552a52.067,52.067,0,0,1,1.775,12.7Zm-6.336-23.615a63.864,63.864,0,0,0-7.048-10.233L714.2,611.5a65.955,65.955,0,0,1,7.282,10.574Zm-15.8-19.17a114.728,114.728,0,0,0-9.875-7.78l1.222-1.729a116.547,116.547,0,0,1,10.057,7.925Zm-20.487-14.6c-3.464-2.036-7.2-4.068-11.1-6.039l.953-1.89c3.945,1.99,7.721,4.044,11.224,6.1Zm-22.55-11.451c-3.686-1.638-7.613-3.286-11.67-4.9l.784-1.967c4.082,1.623,8.034,3.283,11.747,4.931Zm-23.544-9.4c-3.773-1.368-7.807-2.772-11.988-4.173l.672-2.008c4.2,1.407,8.247,2.817,12.037,4.19Zm-24.069-8.1c-3.69-1.164-7.663-2.39-12.146-3.747l.614-2.027c4.49,1.36,8.471,2.588,12.169,3.753Zm-24.331-7.4c-4.284-1.281-8.368-2.505-12.192-3.683l.624-2.025c3.819,1.178,7.9,2.4,12.176,3.679Zm-24.336-7.61a100.628,100.628,0,0,1-11.927-4.8l.952-1.892a98.209,98.209,0,0,0,11.667,4.692Zm-15.992-13.882L547.012,530c1.931-1.962,5.749-3.881,11.674-5.868l.673,2.008c-5.524,1.852-9.17,3.651-10.838,5.345Zm22.952-8.794-.512-2.056c3.663-.912,7.835-1.866,12.4-2.836l.439,2.072C579.261,520.83,575.113,521.779,571.474,522.686Zm24.745-5.314-.4-2.08c3.9-.746,8.1-1.518,12.491-2.3l.37,2.085C604.305,515.858,600.112,516.628,596.219,517.372Zm24.956-4.442-.349-2.089q5.985-1,12.527-2.053l.335,2.091Q627.152,511.928,621.175,512.93Z" transform="translate(-134.118 -116.813)" fill="#fff"/>
    <path id="Path_28" data-name="Path 28" d="M640.949,509.035l-.325-2.093q3.088-.478,6.285-.965l.319,2.093Q644.032,508.557,640.949,509.035Z" transform="translate(-128.609 -116.979)" fill="#fff"/>
    <path id="Path_29" data-name="Path 29" d="M685.993,306.15l9.619-7.694c-7.473-.824-10.543,3.251-11.8,6.477-5.838-2.424-12.194.753-12.194.753l19.247,6.987a14.564,14.564,0,0,0-4.873-6.523Z" transform="translate(-126.785 -129.197)" fill="#3f3d56"/>
    <path id="Path_30" data-name="Path 30" d="M517.24,362.4l9.619-7.694c-7.473-.824-10.543,3.251-11.8,6.477-5.838-2.424-12.193.753-12.193.753l19.246,6.987a14.565,14.565,0,0,0-4.872-6.523Z" transform="translate(-136.716 -125.887)" fill="#3f3d56"/>
    <path id="Path_31" data-name="Path 31" d="M561.648,245.952l9.619-7.694c-7.473-.824-10.543,3.251-11.8,6.477-5.838-2.424-12.193.753-12.193.753l19.247,6.987A14.564,14.564,0,0,0,561.648,245.952Z" transform="translate(-134.103 -132.74)" fill="#3f3d56"/>
    <path id="Path_38" data-name="Path 38" d="M692.416,532.419a13.1,13.1,0,0,1-9.881-15.134c-.057.2-.11.4-.158.6a13.1,13.1,0,1,0,25.5,5.991c.048-.2.089-.407.127-.611A13.1,13.1,0,0,1,692.416,532.419Z" transform="translate(-126.173 -116.314)" fill="#2f2e41"/>
  </g>
</svg>
