<svg xmlns="http://www.w3.org/2000/svg" xmlns:xlink="http://www.w3.org/1999/xlink" version="1.1" x="0px" y="0px" viewBox="0 0 100 125" style="enable-background:new 0 0 100 100;" xml:space="preserve"><g><path d="M50.4,5c-24.9,0-45,20.1-45,45c0,24.9,20.1,45,45,45c24.9,0,45-20.1,45-45C95.4,25.1,75.2,5,50.4,5z M76.4,79   c-2.5-4-6.3-6.9-10.8-8.2l-5.8-1.7c-2-0.6-3-2.7-2.4-4.7c0.1-0.4,0.4-0.8,0.6-1.1l4.2-4.7c2.8-3.1,4.1-7.3,3.6-11.4l-0.7-5.7   c-0.5-4.3-2.9-8.2-6.6-10.6l-0.1,0c-4.9-3.1-11.2-3.1-16.1,0.2v0c-3.4,2.3-5.6,5.8-6.2,9.8l-0.9,6c-0.7,4.3,0.6,8.7,3.5,12l4,4.4   c0.3,0.3,0.5,0.7,0.6,1.1c0.7,1.9-0.4,4.1-2.4,4.7l-5.8,1.7c-4.5,1.3-8.3,4.3-10.8,8.2c-8-7.1-13-17.5-13-29c0-21.5,17.5-39,39-39   c21.5,0,39,17.5,39,39C89.4,61.5,84.3,71.9,76.4,79z"/></g><text x="0" y="115" fill="#000000" font-size="5px" font-weight="bold" font-family="'Helvetica Neue', Helvetica, Arial-Unicode, Arial, Sans-serif">Created by Viktor Vorobyev</text><text x="0" y="120" fill="#000000" font-size="5px" font-weight="bold" font-family="'Helvetica Neue', Helvetica, Arial-Unicode, Arial, Sans-serif">from the Noun Project</text></svg>